# xmcd
#
# Track frame offsets:
#	183
#	19533
#	43955
#
# Disc length: 867 seconds
#
# Revision: 0
# Processed by: cddbd v1.4PL0 Copyright (c) Steve Scherf et al.
# Submitted via: audiograbber 1.81.03
#
DISCID=1d036103
DTITLE=Buddy Guy and Jeff Beck - Mustang Sally [CD Single)
DYEAR=1991
DGENRE=Blues
TTITLE0=Mustang Sally (Single Version)
TTITLE1=Trouble Don't Last
TTITLE2=Mustang Sally (Album Version)
EXTD=
EXTT0=
EXTT1=
EXTT2=
PLAYORDER=
